<?xml version="1.0" encoding="UTF-8"?>
<svg width="800" height="600" viewBox="0 0 800 600" fill="none" xmlns="http://www.w3.org/2000/svg">
  <g opacity="0.11">
    <rect x="0" y="0" width="800" height="600" fill="#3A3A3A"/>
    <g>
      <circle cx="120" cy="100" r="54" fill="#E53E3E"/>
      <rect x="300" y="60" width="120" height="28" rx="14" fill="#3182CE"/>
      <rect x="550" y="120" width="80" height="80" rx="40" fill="#38A169"/>
      <ellipse cx="650" cy="420" rx="60" ry="24" fill="#ED8936"/>
      <rect x="100" y="400" width="140" height="36" rx="18" fill="#ECC94B"/>
      <rect x="320" y="500" width="180" height="40" rx="20" fill="#805AD5"/>
      <circle cx="700" cy="200" r="32" fill="#D53F8C"/>
      <!-- Dumbbell icon -->
      <rect x="400" y="300" width="90" height="14" rx="7" fill="#718096"/>
      <rect x="390" y="295" width="10" height="24" rx="5" fill="#4A5568"/>
      <rect x="490" y="295" width="10" height="24" rx="5" fill="#4A5568"/>
      <!-- Kettlebell icon -->
      <ellipse cx="220" cy="250" rx="22" ry="18" fill="#2B6CB0"/>
      <rect x="202" y="238" width="36" height="18" rx="9" fill="#2C5282"/>
    </g>
  </g>
</svg>
